<svg xmlns="http://www.w3.org/2000/svg" width="325.529" height="65.096" viewBox="3.506 -1.186 325.529 65.096"><path d="m51.204.334.836-.198-1.587-.226.78-.206c.772-.014 1.752.25 2.306.088.075-.147-.761-.177-.968-.29a2.423 2.423 0 0 1-.44-.345c.42-.007.88.012 1.353.056.634.074 1.26.104 1.806.086 1.116 0 2.197-.045 3.411-.064l-.381-.344 1.56.05c.164.024.365-.023.526.007 1.338.253 1.922.089 2.582-.051.135-.036.298-.064.483-.083 1.805.03 3.412.391 5.029.56.303.045.593.106.849.177.557.136 1.18.244 1.812.314.63.07 1.25.099 1.802.085 1.218-.028 2.589.042 3.978.203.413.054.828.087 1.217.096.39.01.746-.004 1.047-.041l.934.182c.416-.09.94-.146 1.54-.163.6-.017 1.263.004 1.949.062.731.063 1.476.1 2.234.167 1.568.126 3.098.192 4.542.195 2.147.051 4.246.083 6.41.158 1.356.03 2.678.034 3.959.014a50.827 50.827 0 0 1 4.88.222c-.093.18-.837.142-1.339.146-1.617.003-3.27-.04-4.931-.064a57.84 57.84 0 0 0-2.184.02 60.457 60.457 0 0 1-3.696-.068c-2.024-.054-3.986-.06-5.866-.018a4.25 4.25 0 0 0-.405.046c-.026.016-.032.035-.018.056.014.021.049.044.1.065.05.02.117.04.192.056.074.016.155.027.235.033.739.106 1.532.22 2.235.223a.768.768 0 0 1 .164.024c1.56.222 2.86.153 4.084.17 2.032.07 3.994.083 5.856.037.282-.005.584.004.898.025 1.943.074 3.766.05 5.383-.071.664-.036 1.284-.1 1.997-.114a6.45 6.45 0 0 0 1.13-.118c.306-.065.527-.154.651-.262.297.05.6.093.903.13.182.02.357.023.49.007.134-.015.215-.048.229-.091.063-.122-.351-.174-.71-.219.22-.03.467-.05.736-.06a66.697 66.697 0 0 1 4.817 0c1.309.083 2.365-.028 3.738.1.165.023.304-.02.457-.032a8.573 8.573 0 0 1 1.447-.061 14.2 14.2 0 0 1 1.704.16c.735-.287 2.266-.007 3.409-.002.343.132-.06.116-.08.154-.02.039 0 0-.136-.02-1.156.22-2.725.295-4.487.214-.327.007-.64.022-.934.046-.446.033-.946.04-1.48.022-.584-.01-1.122.012-1.59.063-.266.004-.493.03-.66.073-.166.044-.266.105-.29.177.175.051.37.097.576.137 1.082.15 2.167.2 3.042.138 1.524-.106 3.326-.069 4.942-.127a51.897 51.897 0 0 1 3.457.018l-.04.077c.141.028.29.05.438.063l.017-.032a1.282 1.282 0 0 0-.254-.078l-.356-.05c.245-.02.476-.07.73-.048.533.04 1.044.052 1.503.033a6.254 6.254 0 0 0 1.166-.14 12.04 12.04 0 0 1 1.99-.157 41.17 41.17 0 0 0 1.694-.096s.04-.077.298-.123c-.24-.045-.49-.08-.739-.105-1.09-.052-2.182-.098-3.254-.127a14.21 14.21 0 0 0-1.111.047c-.948.046-2.008.03-3.12-.046 0 0-.219-.03-.328-.047.324-.174 1.395-.028 1.84-.15.266-.003.733.001.72-.028-.035-.04-.037-.076-.007-.108.03-.033.092-.06.18-.078.089-.02.202-.03.331-.032.13-.002.273.004.42.02 1.224.072 2.382.075 3.402.01.385-.007.815.013 1.197.013a4.75 4.75 0 0 0 .631-.027c.933-.153 2.178-.187 3.547-.1.663.028 1.284.021 1.832-.02.389-.014.547.078.82.117l1.169.07-1.516.149c.305.264.556.348 1.081.354.767.01 1.514.006 2.239-.01.535-.014.98-.081 1.699.008.127.014.25.017.348.008.855-.109 1.878-.15 3-.122.594-.184 1.576-.037 2.486.08.305-.136-.229-.185-.544-.258.768-.007 1.542-.027 2.334-.025.239-.011.51-.005.794.019.283.024.57.064.839.118.13.036.289.062.442.073.153.01.29.004.381-.017.415-.065 1.071-.026 1.417-.128.123-.025.296-.031.488-.019.193.013.393.043.565.086a4.034 4.034 0 0 0-.51.08c-.528.11-.347.273.298.503 1.016-.034 2.053-.05 2.997-.116a11.05 11.05 0 0 1 1.854 0c.684.052 1.384.153 2.02.292.23.054.495.09.74.099.246.01.455-.007.586-.047.082-.045.11-.1.082-.16l-.657-.095.036-.07.955-.03c.505-.01 1.03-.003 1.508-.018a19.3 19.3 0 0 1 2.348.005c.78.052 1.547.088 2.294.107.724.02 1.258-.103 1.95-.135a17.943 17.943 0 0 1 1.7.009c1.04.053 1.999.034 2.79-.056.89.382 1.33.438 2.188.313l.402-.04.104.084.307-.025a89.397 89.397 0 0 1 1.742-.075c.827.02 1.716.103 2.58.238.165.024.385.11.526.179.14.068.445.277.669.412-.26.108-.549.211-.758.333-.022.02-.021.044.001.07a.353.353 0 0 0 .128.076c.061.025.139.048.226.067.088.019.182.033.277.042.184.02.367.032.54.036.853-.005 1.672-.03 2.448-.077.286-.05.673-.062 1.1-.034.428.027.872.092 1.26.185a26.07 26.07 0 0 1 3.447-.017c1.336-.085 2.937 0 4.19-.153-.033.065.089.172.264.231.277.09.592.172.932.243l2.622.1c.094.076.212.153.352.229.096.06.267.118.475.16.208.044.439.068.642.068.522.013.965-.048 1.58.068-.969.14-2.265.15-3.656.028a42.36 42.36 0 0 0-3.742-.093c-.385.007-.893.024-1.018.095-.28.202-.976.185-1.789.165a10.936 10.936 0 0 0-1.706.048c-.484.057-.854.155-1.079.284-.062.122.062.223.62.282l2.317.235c.347-.044.676-.093.987-.149a11.5 11.5 0 0 1 1.874-.09c.71.016 1.469.08 2.219.186.383.055.766.11 1.049.074.248-.04.478-.085.686-.136.044-.033.063-.07.056-.11.148.016.296.037.438.063 1.132.313 2.025.29 2.842.186.222-.03.391-.075.616-.112.224-.037.306-.08.507-.072 1.605.078 2.093-.3 3.45-.313.068-.016.11-.038.124-.065.014-.027-.001-.058-.044-.09a2.694 2.694 0 0 0-.657-.094c-.622-.034-1.175-.008-1.565.074-.274.035-.564.065-.868.089l-1.326-.506a46.65 46.65 0 0 0 3.71-.076c.253-.033.673.006 1.024.008l2.587-.002c.532-.007.99-.1 1.72.08 0 0 .49.022.622-.008.132-.029.723-.206 1.076-.321.4.022.95.094 1.202.061a7.361 7.361 0 0 0 1.145-.284l1.554.119a.6.6 0 0 1-.194.378c-.13.115-.134.249-.013.392.12.143.362.29.706.431l1.495.75c.248.048.515.078.763.086a2.71 2.71 0 0 0 .623-.039c.67-.104 1.42-.19 2.09-.294.848.122.613.35 1.224.534l1.997.285c.289.296.584.58-.359.7-.187.021-.07.134-.242.185.713.213 1.51.264 2.238.39.285.094.521.195.698.299.192.157.59.313 1.11.435.52.122 1.12.2 1.669.217.919.066 1.857.174 2.773.32.313.05.635.086.945.103.311.017.602.016.855-.004.898-.044 1.662-.149 2.243-.307.573-.135 1.339-.21 2.227-.219 1.505.215 1.788.58 2.688.887l-1.592.069c-.066.128.029.286-.623.297-.651.01-.329.125-.125.244.07.06.212.12.4.171.188.051.411.089.632.107l1.343.13c.476.05.939.066 1.338.047.398-.02.718-.075.922-.158.234-.08.554-.138.939-.17.493-.07.901-.17 1.21-.295l1.899.134c.089-.12.357-.21.758-.251a7.273 7.273 0 0 1 1.445.021l1.281.08c1.425.086 1.741.042 2.182-.301l-1.678-.564c.26-.163.51-.306.76-.45-.416-.188-.975-.363-1.62-.507a62.745 62.745 0 0 0-1.854-.45c-.689-.147-1.418-.272-2.274-.435-.147-.056-.36-.155-.635-.25-.275-.091-.563-.18-.862-.268.066-.128.126-.243.024-.389.531.037 1.078.108 1.59.207.514.1.977.225 1.348.364.062.025.139.048.225.068.087.02.18.035.275.045.933.072 1.37.251 1.813.473.302.112.694.209 1.121.277.821.118 1.622.273 2.406.406.24.045.49.08.739.106.823.08 1.649.197 2.436.348.257.037.503.087.717.148.215.06.39.13.514.2-.203.084-.316.187-.333.304-.04.077.533.22.801.328.268.107-.268.065-.452.08-.754.037-.896.085-.462.326.146.076.24.153.279.226.038.073.019.14-.056.199-.122.237-.46.437-.698.672.337.144.906.295.957.481a.442.442 0 0 0 .18.125c.09.042.207.081.343.115.36.072.684.16.95.258.265.098.465.202.582.305.038.043.133.088.267.125.133.037.295.063.453.075.189.014.359.008.475-.017.117-.024.17-.065.15-.114a.525.525 0 0 0-.056-.29c.037-.072.073-.142-.045-.255.564.03 1.153.103 1.705.21a8.064 8.064 0 0 1 1.42.395c.42.156.805.321 1.269.505-.112.218-.112.218.877.58l5.365.077 1.086.231c1.013.2 1.259.18 1.911.053l.442-.116c.903.129 1.943.277 2.531-.01.174.176.291.234.247.262-.29.271-.777.507-1.444.696-.17.045-.292.11-.489.15-.641.221-.808.545-.465.906.172.16.425.32.753.48-.51.239-1.178.442-1.986.604-.684.127-1.252.29-1.687.483-.391.194-.968.346-1.698.446-.37.044-.642.121-.79.225-.06.272.018.561.233.86.038.091.157.188.348.284.19.095.447.186.75.265 0 0 .145.062.214.1.038.327-.203.622-.708.863-.085.067-.252.118-.484.147-.232.029-.52.034-.834.016-.662-.026-1.283-.018-1.925-.027-.69-.017-1.303.02-1.771.107-.469.087-.777.22-.891.388a.307.307 0 0 1-.07.134.126.126 0 0 0-.036.071l1.442.51-1.684.248c-.112.218.681.331 1.073.484l-.254.094c-.323.057-.748-.03-1.135-.08l-.383-.054-.052.103c-.25.143-1.12.005-1.469.114-.35.108-.112.218.395.318.352.075.731.132 1.11.169.378.036.745.05 1.074.04.197-.015.361-.043.483-.083a27.279 27.279 0 0 1 2.319-.454c.645-.114 1.447-.174 2.35-.174.267-.013.585.005.9.05.316.045.608.115.825.197l.467.004s.251.084.214.1c-.196.268-.01.587.531.91l-.49.04c-.697-.017-.267.175-.378.276-.494-.008-1.134-.08-1.377.051l-.352-.002.137.02.17-.045.645.175c-.314.038-.541.081-.817.104a1.303 1.303 0 0 0-.36.084c-.086.037-.131.083-.135.135-.004.078-.09.147-.25.197-.16.051-.388.083-.662.092-.328.009-.52.098-.714.133l.8.5s-.41-.059-.19.028l.032-.065.497.12c.357.106.61.128.83.042.22-.085.164.024.27-.01-.043.084-.281.147-.485.2a7.876 7.876 0 0 1-.786.101c.494.354.518.364-.244.475-.762.112-.51.251-1.145.285-.634.033.07.264.49.304.312.025.629.068.93.125.3.057.576.127.81.206l-.146.282a7.35 7.35 0 0 1-.547-.078c-.603-.141-1.151-.274-1.702-.174l.246.207-1.896-.084c.04.158.318.334.777.49a.686.686 0 0 0-.149.288c-.036.07-.22.03-.343.04-.437.021-.798.076-1.05.16-.254.084-.392.194-.402.322-.056.11.6.32 1.019.304 1.044 0 2.17.06 3.316.178.703.004.82-.283 1.967-.112.014.13-.141.24-.443.311-.301.072-.733.101-1.229.084.264.286 1.828.33 1.878.633a9.415 9.415 0 0 1-1.202-.122 7.098 7.098 0 0 1-1.07-.257 1.475 1.475 0 0 0-.24-.067 2.337 2.337 0 0 0-.287-.038 1.75 1.75 0 0 0-.263-.001.538.538 0 0 0-.174.037c.21.106.44.228.705.342.265.113.328.164.522.185 1.45.207 2.12.62 3.37.874.329.047.359.216.072.203a3.88 3.88 0 0 0-.717.022c-.196.028-.332.075-.393.136a4.574 4.574 0 0 1-.798.182c1.272.412 2.798.767 4.433 1.034.31.052.635.082.927.084a43.781 43.781 0 0 1 2.914.044c.36.011.693.003.983-.025.947-.071 1.69.028 2.353.336l1.1.488c-.042.084-.238.18-.393.31l.868.254 6.797-.765 1.317.58 1.947-.072c.148.014.296.035.438.062.381.172.678.338 1.094.501.415.163 1.176.168 1.695.36.519.19 1.05.184 1.701.29.052.156-.021.298-.214.418-.07.135-.41.224-.475.352-.002.129-.133.24-.382.325-.249.085-.607.14-1.043.16-1.234.299-2.715.524-4.396.668-.147.01-.27.032-.362.061-.09.03-.148.068-.167.111-.006.125-.124.235-.347.322-.223.088-.544.15-.94.183a.601.601 0 0 0-.232.05c-.15.018-.262.05-.322.093s-.069.095-.023.15c.045.056.142.114.281.168.14.054.317.103.514.142.286.063.58.124.877.18-.02.04-.32.051-.278.085.11.107.132.21.06.298-.07.09-.232.163-.47.215l1.557.856c.972.104 1.92.293 2.664.533-.002.041-.048.077-.134.104a1.405 1.405 0 0 1-.355.046c-.395.026-.77.07-1.196.098-.26.02-.478.058-.642.11-.163.052-.267.119-.308.195l.927.312c-.309.086-.537.13-.74.183.107.102.295.205.55.303.256.097.572.186.923.26.095.014.192.024.285.029.093.005.181.005.259 0 .741-.129 1.587.054 2.409.227.822.172 1.268.277 1.874.412l1.177-.004c.294.064.555.14.762.224.207.083.354.171.43.256-.072.142-.626.076-.96.097-.796.104-1.833.106-2.941.007-.274-.039-.56.003-.829.013-.582.029-1.141.069-1.677.119-.353.043-.683.095-.99.154-.092.18 1.172.292.444.394.246.036.336.09.465.067.813.099 1.617.14 2.32.118a34.314 34.314 0 0 1 4.448.146c1.7.152 3.339.197 4.779.132a14.57 14.57 0 0 1 1.782.075c.738.09 1.472.141 2.156.15a6.252 6.252 0 0 1 1.474.162c-.024.045-.248.082-.2.103.688.318.954.66 2.024.978.739.105 1.587.226 2.086.057.498-.17.332-.304-.613-.694a3.9 3.9 0 0 1 .714.04c.25.035.481.09.654.155l.82.29.74.277-.199.386c-.095.13-.01.284.244.44.153.086.286.172.397.257.45.342.566.67.334.95-.437.405-1.033.78-1.781 1.124-.79.335-1.236.747-1.891 1.108a7.185 7.185 0 0 1-1.2.448c-.885.294-1.853.576-2.741.876-.89.3-1.885.523-2.866.776a70.069 70.069 0 0 1-4.705.809c-1.04.195-2.108.387-3.073.608-1.14.25-2.471.439-3.962.564-1.319.14-2.501.331-3.525.57a.92.92 0 0 0-.254.095c-.196.227-.715.395-1.479.478.042.064.097.13.164.195.1.079.117.153.049.215-.068.061-.219.107-.432.13-.61.068-1.121.172-1.51.308-.14.035-.23.084-.26.142-.03.058 0 .124.09.192.077.07.079.136.004.19-.074.053-.221.09-.423.109-.518.078-1.072.144-1.658.197-1.247.115-2.69.144-4.243.082-.164-.023-.334.022-.525-.006-1.096-.081-2.119-.077-2.945.014-.964.048-1.97.062-2.987.096-1.466.021-2.823.103-4.032.244-1.366-.085-2.15.127-3.31.154a50.63 50.63 0 0 0-3.044.206c-1.536.132-3.066.25-4.582.4a42.905 42.905 0 0 0-3.906.399c-.453.08-1.256-.014-1.57.14-.315.155-.93.15-1.43.21l-1.577.153c-.272.035-.57.059-.89.073-1.459.04-2.482.258-3.839.326l-.137-.02c-2.423.345-5.185.562-8.204.647-1.769.127-3.696.161-5.57.265-.455.142-1.499 0-2.066.132-.568.133-1.476.072-2.199.106-.723.035-1.431.1-2.202.113-.67.014-1.238.08-1.655.19-.946.19-2.093.312-3.388.364-1.715.079-3.34.212-5.08.225.017.123-.097.23-.33.311-.232.08-.575.132-.993.147-1.865.085-3.561.243-5.45.317l-.505.01-5.647.186c-1.52.044-2.987.097-4.539.144-.574-.082-.599.08-.998.057-.108-.078-.238-.11-.438-.063l-.05.096-6.447.257c-2.528.144-5.181.225-7.94.244-.655.022-1.268.066-1.83.131-.518.03-1.057.05-1.615.059a69.89 69.89 0 0 0-2.208.008c-1.889.075-3.867.095-5.931.11s-3.633.094-5.471.128c-1.245.022-2.484.03-3.77.02-.614-.006-1.366-.086-2.001-.108-.635-.021-.843-.017-.931.04-.287.158-.978.073-1.534.07-1.086-.004-1.237-.053-1.506-.443l1.341-.153c.33-.047.741-.062 1.195-.044.454.017.935.068 1.397.146.182.034.372.06.56.076.188.016.371.023.537.019 1.347-.049 2.676-.12 3.972-.184l.19-.028.035-.353a6.569 6.569 0 0 0-.52-.074l-6.471-.098c-1.485-.026-3.022-.122-4.48-.144a251.423 251.423 0 0 1-3.372-.068 40.02 40.02 0 0 1-1.451-.09.22.22 0 0 0 .056-.11c.03-.058.069-.135-.137-.192a4.02 4.02 0 0 0-.843-.189 9.75 9.75 0 0 0-.863-.034 21.762 21.762 0 0 1-4.154-.435l-.49.213a1244.17 1244.17 0 0 0-6.269-.207c-.428-.02-.876-.068-1.31-.139-.464-.066-.887-.216-1.376-.293a25.815 25.815 0 0 0-1.439-.116c.132-.055.304-.1.51-.134.202-.014.35-.05.424-.101.074-.052.07-.116-.013-.185-.145-.117-.205-.229.129-.25.31-.034.533-.097.645-.184.112-.087.108-.192-.013-.304a.59.59 0 0 1-.106-.195l-.136-.019c-.441-.228-1.347-.296-1.988-.477a5.443 5.443 0 0 0-.902-.074c-.72-.027-1.423-.03-2.168-.068a11.107 11.107 0 0 1-1.09-.108c-.52-.074-.575-.082-.86-.385.473-.004.852-.057 1.071-.152.22-.094.267-.223.134-.364-.37-.308-.762-.633-2.515-.821a39.688 39.688 0 0 0 1.666-.1.835.835 0 0 0 .336-.073c.064-.037.07-.085.02-.136-.05-.052-.155-.104-.301-.151a3.109 3.109 0 0 0-.517-.112 20.46 20.46 0 0 0-2.79-.289c-.76-.005-1.45.02-2.34.038l-1.04-.148c.02-.039-.13-.088-.09-.11.28-.201.587-.398.903-.615a5.873 5.873 0 0 1-1.185-.371c-.298-.139-.47-.282-.497-.413-.024-.04-.014-.076.027-.107a.517.517 0 0 1 .212-.073c.278-.031.495-.084.633-.155.139-.071.195-.158.165-.254l-.794-.341a123.426 123.426 0 0 0-7.17-.398l-2.095-.037c-.247-.09-.166-.134.073-.141.238-.008.907.005 1.375.01a5.6 5.6 0 0 0 1.045-.057c.282-.048.476-.122.564-.216l-.68-.393c.04-.077.096-.186.478-.187.262-.014.457-.056.554-.12.097-.064.09-.145-.02-.23-.014-.064.016-.123.088-.174.566-.016 1.13-.025 1.644-.055.24-.011.443-.039.596-.081.154-.042.254-.098.293-.164.023-.063-.018-.135-.118-.208a1.744 1.744 0 0 0-.459-.212c-.799-.07-1.535-.057-2.046.039-.185.07-.477.113-.838.121a7.59 7.59 0 0 1-1.185-.073 7.066 7.066 0 0 0-1.33-.065c-.389.022-.669.09-.79.19-.485-.029-.915-.049-1.339-.082a8.667 8.667 0 0 0-1.372-.017c-.635.03-1.318.034-2.033.013a253.206 253.206 0 0 0-6.126-.083c-.53 0-.99.038-1.511.025-.523-.012-.941.059-1.588-.054a3.14 3.14 0 0 0-.364-.03 1.812 1.812 0 0 0-.305.017c-1.157.123-2.506.164-3.97.121-2.009.023-4.09.015-6.103.045-.59.021-1.15.059-1.673.112-.397.034-.813.06-1.244.077-.33.015-.645-.002-.598.135.047.138-.443.061-.726.041a67.8 67.8 0 0 1-2.976-.211 27.138 27.138 0 0 0-2.859-.154c-.648.004-1.32.053-2.141-.12.036-.07.072-.141.259-.218a17.631 17.631 0 0 0-2.232-.459c-.8-.114-1.61-.182-2.366-.198l-1.02-.36a7.71 7.71 0 0 0-.765-.08 5.614 5.614 0 0 0-.693.003 2.876 2.876 0 0 1-1.04-.148 4.923 4.923 0 0 0-1.423-.203 16.972 16.972 0 0 1-2.201-.232c-.186-.078-.3-.16-.329-.237-.029-.076.03-.143.167-.193.223-.087.352-.194.38-.316.026-.121-.049-.255-.222-.392-.087-.084-.113-.165-.076-.238.038-.073.138-.136.294-.185.586-.226.44-.344-.473-.68a3.842 3.842 0 0 0-.528-.153c-.2-.044-.415-.08-.633-.103a26.59 26.59 0 0 0-1.507-.098c-.273-.04-.56.002-.877-.009-1.587-.054-1.811-.19-2.308-.481l-.362-.21a19.755 19.755 0 0 0-2.206-.384 19.534 19.534 0 0 0-2.225-.14 5.474 5.474 0 0 1-.906-.066 28.649 28.649 0 0 0-3-.278 13.276 13.276 0 0 1-1.871-.198 8.992 8.992 0 0 1-1.6-.422 7.704 7.704 0 0 0-1.454-.373c-.657-.093-.71-.218-.333-.323a26.872 26.872 0 0 1 1.563-.355c.194-.039.317-.097.354-.17.037-.073-.012-.156-.143-.24a.444.444 0 0 1-.018-.424c.035-.055.017-.117-.05-.182a1.098 1.098 0 0 0-.34-.194 3.875 3.875 0 0 0-.57-.17 6.506 6.506 0 0 0-.696-.117 65.667 65.667 0 0 0-3.033-.386c-.434-.048-.866-.11-1.287-.183a27.486 27.486 0 0 0-2.71-.443 5.688 5.688 0 0 1-1.195-.246 33.575 33.575 0 0 1-2.808-.939 4.401 4.401 0 0 0-.78-.29 9.266 9.266 0 0 0-1.041-.225c-.301-.043-.542-.146-.772-.214-.16-.163-.167-.317-.024-.447.144-.13.436-.232.847-.296.391-.075.758-.16 1.098-.25a10.49 10.49 0 0 1 1.427-.147c.638-.049 1.116-.16 1.37-.321-1.725-.247-3.356-.617-4.889-.492l-1.144-.232.142-.276c.286-.156.384-.348.287-.559-.085-.1-.07-.195.041-.272.112-.077.318-.135.596-.167 1.656-.308 3.563-.531 5.12-.874a13.152 13.152 0 0 1 1.673-.112c.603-.031.587-.171-.095-.33a44.329 44.329 0 0 0-1.171-.237c-1.774.022-2.524.453-4.542.378l-.903-.529a18 18 0 0 0-.737.005l-3.41.291c-.284.017-.506.06-.643.123-.136.063-.18.145-.129.236.016.111-.037.215-.158.308-.078.064-.036.147.117.23.344.187-.116.225-.408.28-.074.005-.16.007-.25.003a2.873 2.873 0 0 1-.55-.079 1.432 1.432 0 0 1-.213-.07c-.497-.174-.93-.36-1.419-.554.369-.202-.03-.514.537-.701.064-.037.092-.08.081-.128-.01-.048-.06-.099-.144-.15-.217-.132-.316-.263-.287-.38.029-.117.185-.215.453-.285l.036-.071c-.68-.221-.482-.434-.739-.677l-.658-.15c-1.637-.357-1.64-.351-3.073-.308-.279-.143.09-.173.365-.195l2.313-.214a97.471 97.471 0 0 1 4.75-.327c1.685-.077 3.569-.255 5.313-.392a.58.58 0 0 0 .2-.049c.041-.023.057-.05.044-.081a1.454 1.454 0 0 0-.259-.09 2.91 2.91 0 0 0-.338-.065c-.547-.078-1.111-.124-1.696-.187l-1.09-.107-.327-.164c-.213-.1-.356-.223-.643-.292a5.73 5.73 0 0 0-.75-.107 4.343 4.343 0 0 0-.692-.002c-.552.045-1.053.104-1.58.16-.528.055-.82.11-1.278.141-.925.029-1.82.073-2.682.133-.73.116-1.407.25-2.027.4-.384.062-.745.134-1.39.077a2.973 2.973 0 0 1-.737-.224c-.17-.086-.24-.174-.197-.247.039-.058.14-.105.296-.137.155-.032.359-.048.592-.047.653-.023 1.26-.07 1.805-.141.762-.123 1.685-.188 2.713-.191.348.008.586-.054.893-.08.306-.024.568-.077.906-.049 1.052.068 1.568-.079 2.208-.18.217-.044.354-.11.396-.192.042-.081-.013-.175-.159-.27-.28-.191-.625-.381-1.03-.568a4.685 4.685 0 0 0-.787-.25 8.572 8.572 0 0 0-.995-.17c-.2-.116-.304-.232-.3-.337.002-.106.111-.197.317-.267.522-.16.987-.32 2.131-.26.539.02 1.047.016 1.505-.013a24.152 24.152 0 0 1 3.383.105c.311.03.618.048.912.054 2.092.044 4.088.047 6.09.037 1.062-.007 2.133-.033 3.239-.013 2.594.04 4.963-.055 7.47-.076 1.314-.011 2.494-.097 3.48-.254.193-.05.36-.106.498-.17a16.089 16.089 0 0 0-2.04-.324 13.809 13.809 0 0 0-1.965-.055 6.31 6.31 0 0 1-1.203.048c-.462-.02-.951-.075-1.413-.16l1.364-.08c.903-.044 1.827-.07 2.706-.124 1.398-.09 2.696-.214 4.141-.283a24.27 24.27 0 0 0 3.113-.34 20.25 20.25 0 0 1 2.195-.273c.576-.035.576-.035.958-.262-.282-.137-.658-.15-1.013-.145a82.836 82.836 0 0 0-6.03.075c-.95.024-1.796.102-2.498.229-.173.05-.606.037-.955.029a53.302 53.302 0 0 0-3.127.083c-1.366.09-2.882.106-4.49.048-.298-.105.053-.103.073-.141 1.254-.097 2.484-.203 3.762-.29.35-.028.723-.046 1.115-.054 1.461.008 2.688-.12 3.508-.367.046-.09.575-.09.812-.152a.512.512 0 0 0 .24-.18c-.331-.157-.716-.15-1.013-.144-.862.035-1.693.087-2.488.154a26.7 26.7 0 0 1-2.425.088c-.641-.01-1.193.036-1.841.04-.351-.013-.713-.037-1.08-.072.419-.123.982-.205 1.65-.24.511-.078 1.145-.112 1.237-.291-.23-.123-.496-.12-.711-.102-.445.009-.875.025-1.289.05-.877.054-1.824.074-2.82.059a21.419 21.419 0 0 0-1.491.042c-1.053.049-2.065.132-3.03.18-1.974.07-3.78.21-5.679.305-.423.022-.804.078-1.355.006-.55-.072-.574-.082-.637-.132-.15-.083-.191-.166-.116-.23.114-.062.33-.1.612-.106a87.84 87.84 0 0 0 4.836-.494 11.541 11.541 0 0 0 1.74-.24c.384-.079.839-.135 1.348-.166a59.603 59.603 0 0 1 2.314-.159c.372-.02.69-.064.936-.13.245-.065.413-.15.493-.251l-.957-.31a17.629 17.629 0 0 0-.454-.03l-8.138.401-.805.023c-.88-.001-1.092-.046-1.904-.41 1.914-.128 3.431-.42 4.4-.845-.224-.04-.454-.072-.684-.098a43.808 43.808 0 0 0-4.265.01c-.774.021-1.57.025-2.367.034.245-.192 1.136-.154 1.722-.208 1.398-.094 2.639-.256 3.684-.48.36-.086.809-.145 1.324-.176.514-.017.947-.073 1.26-.164.313-.091.497-.214.535-.358.057-.13.17-.252.335-.365-.27-.15-.707-.29-1.227-.393a8.972 8.972 0 0 0-1.598-.17 50.499 50.499 0 0 1-3.341-.242c-.564-.06-1.12-.09-1.63-.088a8.87 8.87 0 0 1-1.447-.119 6.387 6.387 0 0 1-1.263-.324c-.446-.16-.862-.323-1.278-.485-.415-.163-.897-.37-1.381-.57a24.133 24.133 0 0 0-1.274-.037c-.32.014-.69-.001-1.07-.045a7.277 7.277 0 0 1-1.067-.198c.196-.097.417-.182.65-.293-.302-.135-.518-.274-.635-.41-.118-.135-.134-.263-.048-.377.053-.103-.274-.267-.382-.4-.143-.112-.164-.22-.061-.309.103-.088.326-.153.639-.186.39-.057.709-.137.944-.237.078-.027.119-.061.119-.101 0-.04-.04-.084-.116-.128a1.454 1.454 0 0 0-.324-.123 3.45 3.45 0 0 0-.45-.09c-.494-.059-.985-.094-1.446-.102a76.122 76.122 0 0 0-2.283-.017 19.184 19.184 0 0 1-2.583-.176c-.793-.113-1.505-.215-1.881-.455-.376-.24-1.004-.219-1.474-.39.281-.167.77-.29 1.416-.355a4.723 4.723 0 0 0 1.041-.164c.264-.08.432-.185.493-.306l-1.431-.473c-1.154-.213-1.812-.018-3.07-.087l1.314-.212c.027-.019.039-.04.033-.064-.102-.373-.298-.45-1.615-.63l-.739-.106-1.172-.12c-.185-.072-.31-.15-.365-.224-.054-.075-.036-.143.054-.199.179-.094.239-.21.174-.34-.109-.084-.113-.163-.012-.224.101-.062.301-.1.566-.11.211-.011.233-.111.352-.17.119-.08.318-.144.583-.187.265-.043.59-.064.954-.062a39.105 39.105 0 0 0 3.014-.148l-.164-.024c.961.039 1.863.027 2.66-.033.801-.071 1.822-.057 2.67-.108.689-.006 1.219-.093 1.477-.243.25-.144 1.123-.13 1.793-.116.396.009.78.008 1.146-.002a9.133 9.133 0 0 1 1.738.049c.189.022.376.032.543.03 1.614.002 3.224.012 4.817-.001a8.013 8.013 0 0 1 1.24.046c.185.02.366.028.519.019 2.523-.108 5.356-.02 7.831-.149.3-.025.632-.035.986-.031.792.03 1.485-.014 1.973-.125.263-.059.598-.095.983-.107.385-.011.812.003 1.254.041.736.048 1.42.04 1.979-.02a69.742 69.742 0 0 1 3.413-.126c.363 0 .684-.024.937-.071.254-.047.434-.117.525-.202-.282-.137-.6-.148-.903-.13-1.17-.008-2.338-.023-3.487-.015a48.59 48.59 0 0 0-2.948.02 7.773 7.773 0 0 1-1.598-.091 10.259 10.259 0 0 0-1.989-.133c-.438.012-.9.011-1.378-.004a6.944 6.944 0 0 1-.903-.129 3.44 3.44 0 0 0-.734-.09 2.128 2.128 0 0 0-.314.015.643.643 0 0 0-.205.055c-.457.203-1.444.124-2.294.12-1.254-.303-2.216-.09-3.396-.251a2.592 2.592 0 0 0-.271-.017 1.5 1.5 0 0 0-.227.014c-2.314.159-4.997.12-7.421.208a5.928 5.928 0 0 1-.891-.038c-2.059-.237-4.05-.276-5.584-.109a5.51 5.51 0 0 1-.624.014 21.664 21.664 0 0 0-2.902-.07c-1.361.02-2.67.053-4.052.055-.952-.017-1.79.039-2.434.162-.023.045-.443.006-.767.008-.18-.109-.335-.207-.521-.302-.164-.12-.414-.239-.732-.35a8.411 8.411 0 0 0-1.112-.292c-.711-.102-.772-.27-.265-.342 1.31-.231 2.946-.348 4.788-.342 1.541-.028 3.11-.052 4.673-.063.911 0 1.87.02 2.757.009.299.009.605.025.915.048.381.034.752.05 1.093.046a33.995 33.995 0 0 1 3.604.018c.471.012.925.01 1.354-.006a40.41 40.41 0 0 1 3.265-.009c.716.022 1.411.027 2.078.015.236-.001.43-.035.655-.017 1.983.2 3.409-.002 5.201.054.872.008 1.707-.008 2.493-.05 1.53-.03 3.102-.035 4.709-.016 2.123.041 4.097-.028 6.127-.034.4 0 .788-.01 1.16-.027a72.843 72.843 0 0 1 5.826-.077c.469.004.891-.021 1.241-.073.35-.052.62-.13.794-.229.075-.067.035-.151-.113-.237a9.288 9.288 0 0 0-.838-.312l-11.48-.125a39.64 39.64 0 0 0-1.41-.001c-1.343.024-2.726.024-4.142 0-1.4-.02-2.74.015-4.098.028-.4.003-.81 0-1.228-.01a208.843 208.843 0 0 0-8.262-.1c-1.126.02-2.338-.023-3.484-.022-1.147.002-2.716.026-4.077.045l-4.216.086c-.829.013-1.637.042-2.442.065-.946-.445-1.275-.547-2.565-.725a9.093 9.093 0 0 0-1.298-.103c-1.296.063-2.908-.057-4.136-.012-.74.005-1.37.07-1.829.187-.397.092-.85.169-1.35.227-1.338-.37-1.441-.626-.41-.747.28-.03.662-.03.866-.084.117-.032.275-.052.462-.06.187-.006.398.001.615.022.688.05 1.335.053 1.877.006a11.053 11.053 0 0 1 1.808-.031c.492.07.937-.052 1.37-.094.432-.041.79-.107 1.456-.033.122.015.244.023.355.024.112 0 .211-.007.29-.021a17.028 17.028 0 0 1 2.514-.034c1.424.039 2.764.014 3.974-.073.725-.069 1.346-.178 1.84-.322.135-.048.333-.08.575-.09 1.211.003 2.521.082 3.846.232.499.06.998.107 1.487.137a37.22 37.22 0 0 0 2.891.09c1.33-.026 2.71-.02 4.133.018.877.02 1.725.016 2.531-.01a36.917 36.917 0 0 1 2.628.03c.912.031 1.72-.013 2.328-.128.202-.06.365-.129.488-.206-1.325-.217-2.703-.313-3.857-.269-.437-.007-.802.016-1.257-.07l-.017.033c-.093.022-.232.03-.39.021a2.596 2.596 0 0 1-.467-.068l.165-.32c.878-.004 1.73-.022 2.555-.056.695-.039 1.623.156 2.229.064 1.165.076 1.92-.078 2.967-.059 1.048.02 2.197.128 3.244.147.916.003 1.805-.01 2.665-.04a7.963 7.963 0 0 1 1.003-.008c.51.037.989.036 1.378-.005.39-.04.676-.118.825-.224a8.112 8.112 0 0 0-.5-.34c.39-.115.975-.171 1.668-.162l.982-.025c.26-.002.461-.035.561-.091.1-.056.092-.132-.023-.211C54.429.175 54.363.131 52.98.422L51.173.336l.031-.002Zm24.469.63-.137-.02.137.02Zm223.304 39.063-.037.07.04-.076.301.043.023-.045-.327.008Zm-42.194-29.769a41.134 41.134 0 0 0-1.286-.184 2.143 2.143 0 0 0-.31 0 .702.702 0 0 0-.211.043c-.04.077.2.125.419.156.276.043.559.068.82.072.26.005.49-.011.665-.046l.251-.032-.348-.009ZM34.13 33.34c.282.007.55.004.798-.01 1.101-.084 2.157-.195 3.285-.275 1.428-.174 3.061-.266 4.84-.273.695 0 1.285-.059 1.703-.17.25-.06.57-.099.94-.114l4.717-.263c.293-.04.548-.094.758-.16l-.848-.121c-.344 0-.641.026-.862.076-.24.084-.637.123-1.114.11-.482-.009-.952-.01-1.409-.002-.863.022-1.732.056-2.599.084-.35.225-1.338.146-2.188.142l-.658.023c-2.156.157-4.219.354-6.179.592a5.859 5.859 0 0 0-.972.177c-.102.058-.139.129-.106.206l-.136-.02.03-.002Zm94.628 18.963c.52.004 1.061.024 1.615.058.425.038.842.058 1.233.06 2.188.004 4.465.07 6.8.2.305.02.599.027.87.02l1.923-.083c.607-.038.62-.063.201-.392a31.81 31.81 0 0 0-1.094-.156c-.22-.032-.575-.082-.663-.026-.522.16-1.452.082-2.237.066-2.273-.035-4.615-.108-6.909-.16a28.567 28.567 0 0 0-1.406-.008c-.28 0-.535.015-.756.043a.728.728 0 0 0-.16.024c-.04.012-.066.028-.075.046-.01.018-.002.039.021.06a.388.388 0 0 0 .115.063c.183.071.396.139.631.2l-.11-.015Zm19.84-49.31 2.246-.086c.27-.01.5-.06.788-.046 1.533.03 2.957-.016 4.211-.136.428-.047.926-.065 1.466-.052 1.656.036 3.222.007 4.656-.086a33.976 33.976 0 0 0 2.59-.18c.062-.019.102-.043.116-.07.014-.028.003-.06-.033-.091-.009-.02-.035-.043-.076-.064a.862.862 0 0 0-.162-.061 2.222 2.222 0 0 0-.455-.07 20.427 20.427 0 0 0-2.768-.045c-.765.055-1.587.083-2.452.084-.829.012-1.4.151-2.418.075-.431-.024-.814-.005-1.084.051-.542.096-1.291.116-2.114.057a15.261 15.261 0 0 0-1.4-.021c-1.053.049-2.062.125-3.04.2a14.76 14.76 0 0 1-.982.024l-4.872-.007c-1.17-.009-2.338-.024-3.488-.016a25.368 25.368 0 0 0-2.598.083c-.835.074-1.743.115-2.707.123-1.5.062-2.99.104-4.621.132-1.04.024-2.105.037-3.19.034-.547-.022-1.016.014-1.315.101-.183.07-.6.025-.948.016-1.853-.111-3.597-.111-5.111 0a7.561 7.561 0 0 1-.631.027c-1.453.027-2.958.04-4.353.067-.367.014-.714.038-1.036.073.032.045.126.092.264.133.138.04.309.07.477.083 1.311.1 2.58.143 3.756.123a121.95 121.95 0 0 1 6.117-.015c1.64.057 3.14.008 4.392-.144.978-.113 2.24-.104 3.57.028a9.408 9.408 0 0 0 1.587.055c.448-.035.96-.039 1.505-.013 1.15.048 2.258.058 3.303.031 1.023-.046 1.98-.137 3.03-.18 1.05-.043 2.647-.063 3.942-.125a77.46 77.46 0 0 1 3.837-.093Zm-92.763-1.84c.106.195.518.31.965.352 1.54.202 3.072.27 4.337.193.686-.085 1.593-.076 2.542.026 1.107.103 2.147.103 2.938 0 .194-.02.343-.056.435-.104l.063-.122c-.08-.03-.18-.059-.29-.081-.11-.023-.23-.04-.347-.051l-5.137-.121-.895-.032a46.876 46.876 0 0 0-4.61-.06Zm9.934 2.908c.783.305.786.299 1.193.364 1.968.264 3.943.389 5.691.358.389-.009.72-.046.967-.11.126-.01.207-.037.226-.074.02-.037-.025-.082-.123-.125l-.625-.213c-1.155-.074-2.295-.129-3.412-.164-1.3-.04-2.457-.02-3.808-.02l-.11-.016Zm62.984 46.822c.72.426.724.42 1.97.509a32.87 32.87 0 0 0 2.51.09c.973-.006 1.969-.002 2.938-.001.236.01.438-.006.566-.044.128-.038.173-.095.127-.16a2.107 2.107 0 0 0-.553-.186 4.517 4.517 0 0 0-.742-.096h-.53c-.64-.008-1.307-.028-1.927-.02-.405.026-.87.022-1.362-.014a13.068 13.068 0 0 1-1.47-.19l-1.527.112ZM69.933 1.446c.194.072.416.141.658.204.942.17 1.945.256 2.812.243.41.004.788-.045 1.202.007.744.066 1.467.094 2.13.084 0 0 .188-.022.249-.027l.145-.282c-.31-.059-.634-.105-.958-.137-1.09-.052-2.161-.081-3.23-.117-1.068-.036-1.44-.054-2.14-.065-.314.02-.605.05-.869.09ZM44 36.713l1.395.544c.46.04.893.04 1.231.001.339-.04.565-.118.645-.222.121-.05.138-.122.046-.199-.092-.077-.284-.155-.538-.216a7.038 7.038 0 0 0-.818-.19 9.09 9.09 0 0 0-.907-.111L44 36.713Zm12.105-3.093c-.93-.078-1.823-.1-2.611-.063-.5.067-1.17.063-1.873-.012-1.28-.152-2.52-.177-3.461-.068 0 0-.04.077-.2.103-.16.025.465.066.602.086 1.01.034 2.028.055 2.908.057a27.566 27.566 0 0 1 1.724.019c.822.04 1.605.042 2.317.007 0 0 .275-.022.591-.122l.003-.007ZM158.04 1.765a12.481 12.481 0 0 0-2.786-.295c-.327 0-.595.035-.76.096-.164.061-.216.147-.148.243l1.012.144c.863-.021 1.603-.088 2.682-.188Zm83.151 7.395a8.19 8.19 0 0 0-1.129-.168 6.257 6.257 0 0 0-1.044-.005c-.153.013-.056.11-.086.167-.018.014-.018.03-.002.047a.254.254 0 0 0 .094.051c.046.017.103.031.165.042a7.409 7.409 0 0 0 1.257.031c.314-.022.566-.07.732-.14l.013-.025Zm5.53 1.128c-.052-.05-.166-.101-.322-.144a2.933 2.933 0 0 0-.528-.088 7.261 7.261 0 0 0-.882.06c-.28.03-.09.173.28.254.158.032.326.056.492.07.166.014.326.018.466.012.14-.007.257-.024.342-.05.085-.027.135-.061.146-.101l.007-.013ZM84.462 1.696c-.824-.166-1.472-.107-2.176-.166-.704-.06-.878-.064-.79.052.087.116.574.082.875.125.407.057.818.086 1.188.084.369-.002.682-.035.904-.095Zm172.431 27.447c-.44-.032-.873-.052-1.29-.06-.057.018-.092.041-.106.068-.014.026-.005.055.026.086 0 0 .278.088.443.112.605.08.644-.053.927-.206Zm61.566 15.79c.293.117.427.198.664.253.109.018.222.03.33.037.11.006.211.005.298-.003.108-.037.136-.092.08-.154 0 0-.3-.104-.416-.107-.33-.02-.65-.028-.956-.026ZM70.281.938c-.629-.09-1.231-.176-1.68-.047 1.002.108 1.003.108 1.68.047Zm10.227.965c-.629-.207-1.004-.22-1.314-.188-.066.008-.11.023-.126.043-.016.02-.003.044.038.069a.69.69 0 0 0 .186.067c.081.018.172.032.26.038.335 0 .655-.01.956-.03Zm33.048-.576c.017-.032.037-.07-.127-.094a1.172 1.172 0 0 0-.301-.043l-.033.064.461.073Zm19.56 52.328-.372.037.164.023.437.008-.23-.068Zm132.742-44.25c-.137-.02-.274-.039-.297.006-.03.007-.048.018-.055.03-.006.012 0 .026.019.04l.273.04.06-.116Zm-21.557.792c-.09 0-.173.004-.242.014l-.02.038.274.04-.012-.092ZM56.053 23.087a3.101 3.101 0 0 0-.328-.048l-.137-.02s.145.063.227.074c.082.012.15-.006.238-.007Z" fill="#f215b6" fill-rule="evenodd" data-name="Vector"/></svg>